<?xml version="1.0" encoding="UTF-8"?>
<!DOCTYPE svg PUBLIC "-//W3C//DTD SVG 1.1//EN" "http://www.w3.org/Graphics/SVG/1.1/DTD/svg11.dtd">
<!-- Creator: CorelDRAW X8 -->
<svg xmlns="http://www.w3.org/2000/svg" xml:space="preserve" width="498.255mm" height="71.036mm" version="1.1" style="shape-rendering:geometricPrecision; text-rendering:geometricPrecision; image-rendering:optimizeQuality; fill-rule:evenodd; clip-rule:evenodd"
viewBox="0 0 49826 7104"
 xmlns:xlink="http://www.w3.org/1999/xlink">
 <defs>
  <style type="text/css">
   <![CDATA[
    .str1 {stroke: rgba(0,0,0,.85);stroke-width:20}
    .str0 {stroke: rgba(255,255,255,.2);stroke-width:20}
    .str2 {stroke:rgba(255,0,0,.9);stroke-width:10}
    .fil2 {fill:none}
    .fil0 {fill: rgba(91,91,91,.1)}
    .fil1 {fill: rgba(255,255,255,.1)}
   ]]>
  </style>
 </defs>
 <g id="Слой_x0020_1">
  <metadata id="CorelCorpID_0Corel-Layer"/>
  <g id="_2121679122192">
   <g>
    <path class="fil0" d="M7229 1802c-45,7 -90,16 -134,28 -86,22 -169,52 -252,83 -68,26 -137,55 -207,76 -118,34 -237,67 -360,79 -116,12 -237,8 -353,8 -1433,-4 -2867,0 -4300,6 -97,0 -195,1 -293,1 -148,1 -301,3 -449,-5 -64,-4 -128,-16 -190,-34 -115,-33 -200,-91 -244,-202l-280 0c-44,0 -80,-36 -80,-81l0 -217c0,-44 36,-81 80,-81l279 0c44,-113 128,-171 245,-205 62,-18 126,-30 190,-34 148,-8 301,-5 449,-5 98,1 196,1 293,2 1433,6 2867,9 4300,5 116,0 237,-3 353,8 123,12 242,45 360,80 70,20 139,49 207,75 82,31 166,61 252,84 45,11 90,21 137,27 18,-23 46,-37 77,-37l132 0c55,0 100,45 100,100l0 180c0,54 -45,99 -100,99l-132 0c-32,0 -61,-15 -80,-40z"/>
    <path class="fil1 str0" d="M7309 1503l132 0c33,0 60,27 60,60l0 180c0,33 -27,60 -60,60l-132 0c-27,0 -50,-18 -58,-43 -235,24 -482,149 -626,191 -314,92 -384,86 -702,86 -1257,-4 -3164,0 -4300,5 -235,1 -587,5 -739,-3 -63,-4 -125,-16 -182,-32 -101,-30 -187,-80 -227,-202l0 -2 -308 0c-22,0 -41,-19 -41,-42l0 -217c0,-23 19,-41 41,-41l307 0 0 -1c39,-126 126,-176 228,-206 57,-17 119,-29 182,-32 152,-9 504,-5 739,-4 1136,5 3043,9 4300,6 318,-1 388,-7 702,85 144,43 391,167 627,191l0 3c7,-25 30,-42 57,-42z"/>
    <path class="fil2 str1" d="M7252 1542c-236,-24 -483,-148 -627,-191 -314,-92 -384,-86 -702,-85 -1257,3 -3164,-1 -4300,-6 -235,-1 -587,-5 -739,4 -63,3 -125,15 -182,32 -102,30 -189,80 -228,206l1 303c40,122 126,172 227,202 57,16 119,28 182,32 152,8 504,4 739,3 1136,-5 3043,-9 4300,-5 318,0 388,6 702,-86 144,-42 392,-167 627,-191"/>
    <rect class="fil2 str1" x="7249" y="1503" width="253" height="300" rx="60" ry="57"/>
    <path class="fil2 str1" d="M167 1503l307 0 0 300 -307 0c-22,0 -41,-19 -41,-42l0 -217c0,-23 19,-41 41,-41z"/>
    <rect class="fil2 str1" x="474" y="1586" width="6775" height="130"/>
    <path class="fil2 str1" d="M1086 1785c10,16 25,38 47,39 23,1 45,-16 64,-38 -10,-22 -17,-46 -22,-70l41 0c3,11 6,22 9,32 8,-12 15,-24 19,-33 13,-29 24,-63 25,-94 2,-35 0,-73 -9,-108 -2,-7 -10,-34 -19,-40 -9,6 -20,33 -23,41 -8,23 -12,48 -13,72l-40 0c1,-29 6,-60 16,-87 9,-23 26,-59 56,-62 34,-5 51,33 59,57 13,40 15,87 13,129 -1,35 -13,73 -28,106 -9,18 -21,40 -37,61 12,17 26,29 45,31 25,2 49,-13 67,-31 -10,-23 -17,-48 -22,-74l40 0c3,14 7,27 12,40 25,-37 40,-81 42,-124 1,-35 0,-73 -9,-108 -2,-7 -11,-34 -19,-40 -10,6 -21,33 -23,41 -7,20 -11,41 -13,61l-40 0c2,-26 7,-52 16,-76 8,-23 25,-59 55,-63 34,-4 52,34 60,58 12,40 15,87 13,129 -3,54 -24,111 -59,156 -2,2 -4,4 -5,6 9,17 25,38 46,39 23,1 45,-16 64,-37 -12,-25 -19,-54 -24,-82l41 0c3,15 6,30 11,44 8,-13 14,-25 19,-34 13,-29 24,-63 25,-94 2,-35 0,-73 -9,-108 -2,-7 -10,-34 -19,-40 -9,6 -20,33 -23,41 -7,20 -10,41 -12,61l-41 0c3,-26 8,-52 16,-76 9,-23 26,-59 56,-63 34,-4 51,34 59,58 13,40 15,87 13,129 -1,35 -13,73 -28,106 -9,18 -21,40 -37,62 11,17 25,28 44,30 27,3 55,-17 75,-38 -11,-23 -19,-51 -25,-78l41 0c3,15 7,29 12,43 24,-38 39,-84 41,-127 2,-35 0,-73 -9,-108 -2,-7 -10,-34 -19,-40 -9,6 -20,33 -23,41 -7,20 -10,41 -12,61l-41 0c3,-26 8,-52 16,-76 8,-23 26,-59 56,-63 34,-4 51,34 59,58 13,40 15,87 13,129 -2,57 -25,117 -61,164 0,0 -1,1 -1,1 9,16 24,35 45,36 21,1 43,-15 61,-35 -9,-26 -16,-56 -21,-84l41 0c3,15 6,30 10,45 8,-14 15,-26 19,-35 13,-29 24,-63 26,-94 1,-35 0,-73 -9,-108 -2,-7 -11,-34 -19,-40 -10,6 -21,33 -24,41 -6,20 -10,41 -12,61l-40 0c2,-26 7,-52 16,-76 8,-23 25,-59 55,-63 34,-4 52,34 59,58 13,40 16,87 14,129 -2,35 -14,73 -29,106 -9,19 -23,44 -40,66 3,9 15,31 23,32 6,1 19,-18 21,-22 19,-28 32,-67 42,-100l42 0c-12,42 -49,165 -110,159 -19,-2 -34,-17 -47,-38 -23,21 -50,35 -80,34 -31,-1 -54,-20 -71,-42 -27,24 -61,43 -99,40 -28,-3 -49,-17 -65,-37 -25,23 -54,41 -86,39 -34,-1 -57,-22 -74,-46 -25,20 -56,35 -90,32 -28,-3 -50,-17 -67,-37 -24,24 -54,42 -86,40 -33,-1 -56,-21 -73,-44 -27,27 -65,53 -106,43 -22,-6 -40,-21 -55,-41 -25,25 -55,44 -88,42 -15,0 -28,-5 -40,-12 -9,7 -20,13 -32,14 -67,7 -103,-101 -117,-146l34 0 8 0c9,30 23,65 41,89 5,7 18,22 29,21 3,-1 6,-2 9,-4 -5,-7 -10,-15 -14,-22 -13,-25 -23,-54 -31,-84l42 0c6,24 14,48 25,67 1,2 1,3 2,4 22,-50 21,-113 23,-166 2,-35 0,-73 -9,-108 -2,-7 -10,-34 -19,-40 -9,6 -20,33 -23,41 -8,23 -12,48 -13,72l-40 0c1,-29 6,-60 16,-87 9,-23 26,-59 56,-62 34,-5 51,33 59,57 13,40 15,87 13,129 -2,59 -2,124 -26,179 -3,6 -5,11 -9,16 6,3 12,5 18,6 23,1 47,-18 66,-41 -9,-21 -17,-44 -22,-67l41 0c3,9 6,19 9,29 7,-12 12,-22 16,-30 14,-29 24,-63 26,-94 1,-35 0,-73 -9,-108 -2,-7 -11,-34 -19,-40 -10,6 -21,33 -23,41 -8,23 -12,48 -14,72l-40 0c2,-29 7,-60 17,-87 8,-23 25,-59 55,-62 34,-5 52,33 60,57 12,40 15,87 13,129 -2,35 -14,73 -29,106 -8,17 -20,38 -34,58 10,19 23,33 39,36 23,6 49,-15 67,-34l0 0 8 -11c-8,-19 -15,-40 -20,-62l41 0c2,9 5,17 7,25 25,-36 42,-76 44,-120 1,-35 0,-73 -9,-108 -2,-7 -11,-34 -19,-40 -10,6 -21,33 -24,41 -7,23 -11,48 -13,72l-40 0c2,-29 7,-60 17,-87 8,-23 25,-59 55,-62 34,-5 52,33 60,57 12,40 15,87 13,129 -3,56 -26,107 -60,153l0 0 -5 9z"/>
    <line class="fil2 str1" x1="216" y1="1503" x2="216" y2= "1803" />
    <path class="fil2 str2" d="M7774 1552l86 195m1 -185l-94 205m-26 -167l147 93m-130 9l121 -92m-62 -37l2 153m-278 -73l285 0"/>
   </g>
   <g>
    <path class="fil0" d="M14398 5604c-46,6 -91,15 -135,27 -86,22 -169,52 -252,84 -68,25 -137,54 -207,75 -118,35 -237,67 -360,79 -116,12 -237,8 -353,8 -1433,-3 -2867,0 -4300,6 -97,0 -195,1 -293,1 -147,1 -301,4 -448,-5 -65,-4 -129,-16 -190,-33 -116,-34 -200,-92 -245,-203l-279 0c-45,0 -81,-36 -81,-80l0 -218c0,-44 36,-81 81,-81l278 0c44,-112 129,-171 246,-205 61,-18 125,-30 190,-33 147,-9 301,-6 448,-6 98,1 196,2 293,2 1433,6 2867,9 4300,6 116,-1 237,-4 353,7 123,13 242,45 360,80 70,20 139,49 207,75 83,32 166,62 252,84 45,12 91,21 137,27 18,-22 47,-37 77,-37l132 0c55,0 100,45 100,100l0 180c0,55 -45,99 -100,99l-132 0c-32,0 -61,-15 -79,-39z"/>
    <path class="fil1 str0" d="M14477 5304l132 0c33,0 60,27 60,60l0 180c0,33 -27,60 -60,60l-132 0c-27,0 -50,-18 -57,-42 -235,23 -483,148 -627,190 -314,93 -384,87 -702,86 -1256,-3 -3164,1 -4300,5 -235,1 -587,6 -739,-3 -63,-4 -125,-16 -181,-32 -102,-30 -188,-80 -228,-202l0 -2 -307 0c-23,0 -42,-19 -42,-41l0 -218c0,-23 19,-41 42,-41l306 0 0 -1c39,-125 126,-176 229,-206 56,-16 118,-28 181,-32 152,-9 504,-5 739,-4 1136,5 3044,9 4300,6 318,-1 388,-7 702,86 144,42 392,167 627,190l0 3c8,-25 30,-42 57,-42z"/>
    <path class="fil2 str1" d="M14420 5343c-235,-23 -483,-148 -627,-190 -314,-93 -384,-87 -702,-86 -1256,3 -3164,-1 -4300,-6 -235,-1 -587,-5 -739,4 -63,4 -125,16 -181,32 -103,30 -190,81 -229,206l1 303c40,122 126,172 228,202 56,16 118,28 181,32 152,9 504,4 739,3 1136,-4 3044,-8 4300,-5 318,1 388,7 702,-86 144,-42 392,-167 628,-191"/>
    <rect class="fil2 str1" x="14417" y="5304" width="253" height="300" rx="60" ry="57"/>
    <path class="fil2 str1" d="M7336 5304l306 0 0 300 -306 0c-23,0 -42,-19 -42,-41l0 -218c0,-23 19,-41 42,-41z"/>
    <rect class="fil2 str1" x="7642" y="5388" width="6775" height="130"/>
    <path class="fil2 str1" d="M8254 5586c10,16 26,38 48,39 22,1 44,-16 64,-38 -11,-21 -18,-46 -23,-70l42 0c2,11 5,22 8,33 8,-13 15,-25 19,-34 13,-29 24,-62 25,-94 2,-35 0,-73 -9,-107 -2,-8 -10,-35 -19,-41 -9,6 -20,34 -23,42 -7,22 -12,47 -13,72l-40 0c1,-30 7,-61 16,-88 9,-23 26,-59 56,-62 34,-4 51,33 59,57 13,40 15,87 14,129 -2,36 -14,73 -29,106 -9,18 -21,40 -37,61 12,17 26,29 45,31 25,2 49,-13 68,-31 -10,-22 -18,-48 -23,-74l41 0c3,14 6,27 11,40 25,-36 40,-81 42,-124 2,-35 0,-73 -9,-107 -2,-8 -11,-35 -19,-41 -10,6 -21,34 -23,42 -7,19 -11,40 -13,61l-40 0c2,-27 7,-53 16,-77 8,-23 25,-59 55,-62 35,-4 52,33 60,57 13,40 15,87 13,129 -2,54 -24,112 -59,156 -2,2 -3,5 -5,7 9,16 25,37 47,38 22,1 44,-16 63,-37 -11,-25 -19,-54 -24,-82l41 0c3,15 6,30 11,44 8,-13 15,-25 19,-34 13,-29 24,-62 25,-94 2,-35 0,-73 -9,-107 -2,-8 -10,-35 -19,-41 -9,6 -20,34 -23,42 -6,19 -10,40 -12,61l-40 0c2,-27 7,-53 16,-77 8,-23 25,-59 55,-62 34,-4 52,33 59,57 13,40 15,87 14,129 -2,36 -14,73 -29,106 -9,18 -21,41 -37,62 11,17 25,29 44,30 27,3 55,-17 75,-37 -11,-24 -19,-51 -25,-79l41 0c3,15 7,29 12,43 24,-38 40,-84 41,-127 2,-35 0,-73 -9,-107 -2,-8 -10,-35 -19,-41 -9,6 -20,34 -23,42 -6,19 -10,40 -12,61l-40 0c2,-27 7,-53 15,-77 9,-23 26,-59 56,-62 34,-4 51,33 59,57 13,40 15,87 13,129 -2,57 -25,117 -61,164 0,0 -1,1 -1,1 9,16 25,35 45,36 21,1 43,-15 61,-35 -9,-26 -16,-56 -20,-84l40 0c3,15 6,30 10,45 8,-14 15,-26 19,-35 14,-29 25,-62 26,-94 1,-35 0,-73 -9,-107 -2,-8 -11,-35 -19,-41 -10,6 -21,34 -23,42 -7,19 -11,40 -13,61l-40 0c2,-27 7,-53 16,-77 8,-23 25,-59 55,-62 34,-4 52,33 60,57 12,40 15,87 13,129 -2,36 -13,73 -29,106 -9,20 -23,44 -40,66 4,9 15,32 23,32 6,1 19,-18 22,-22 18,-28 31,-67 42,-100l41 0c-12,42 -48,165 -110,159 -19,-2 -34,-17 -47,-38 -23,21 -50,36 -80,34 -31,-1 -54,-20 -70,-42 -27,24 -62,43 -100,40 -28,-3 -49,-17 -65,-37 -25,24 -54,41 -86,39 -33,-1 -57,-22 -74,-46 -25,20 -56,35 -90,32 -28,-2 -50,-16 -67,-37 -24,24 -54,42 -86,40 -33,-1 -56,-21 -72,-44 -28,28 -65,53 -106,43 -23,-6 -41,-20 -56,-40 -24,25 -54,43 -88,41 -15,0 -28,-5 -39,-12 -10,7 -21,13 -33,14 -67,7 -103,-100 -117,-146l34 0 8 0c9,30 23,65 41,89 5,7 18,22 29,21 3,0 6,-2 10,-4 -6,-7 -11,-15 -15,-22 -13,-24 -23,-54 -30,-84l41 0c6,25 14,48 25,68 1,1 1,2 2,3 22,-49 21,-113 24,-166 1,-35 -1,-73 -10,-107 -2,-8 -10,-35 -19,-41 -9,6 -20,34 -23,42 -7,22 -11,47 -13,72l-40 0c1,-30 7,-61 17,-88 8,-23 25,-59 55,-62 34,-4 52,33 59,57 13,40 15,87 14,129 -3,59 -2,124 -27,180 -3,5 -5,10 -8,16 5,3 11,5 17,5 24,1 47,-17 66,-40 -9,-21 -16,-45 -22,-68l42 0c2,9 5,19 8,29 7,-11 13,-22 16,-30 14,-29 25,-62 26,-94 2,-35 0,-73 -9,-107 -2,-8 -11,-35 -19,-41 -10,6 -21,34 -23,42 -8,22 -12,47 -13,72l-41 0c2,-30 7,-61 17,-88 8,-23 25,-59 55,-62 35,-4 52,33 60,57 13,40 15,87 13,129 -2,36 -13,73 -29,106 -8,17 -19,38 -34,59 10,18 23,32 39,36 23,5 49,-15 68,-35l-1 0 8 -10c-8,-20 -15,-41 -20,-63l41 0c2,9 5,17 8,26 24,-37 41,-77 43,-121 1,-35 0,-73 -9,-107 -2,-8 -11,-35 -19,-41 -10,6 -21,34 -23,42 -8,22 -12,47 -13,72l-41 0c2,-30 7,-61 17,-88 8,-23 25,-59 55,-62 35,-4 52,33 60,57 12,40 15,87 13,129 -2,56 -26,107 -60,153l0 0 -5 9z"/>
    <line class="fil2 str1" x1="7384" y1="5304" x2="7384" y2= "5604" />
    <path class="fil2 str2" d="M14942 5353l87 196m0 -186l-94 205m-26 -166l148 93m-131 8l122 -92m-63 -36l2 152m-278 -73l285 0"/>
   </g>
   <g>
    <path class="fil0" d="M21180 1802c-46,7 -91,16 -135,28 -86,22 -169,52 -252,83 -68,26 -137,55 -207,76 -118,34 -237,67 -360,79 -116,12 -237,8 -353,8 -1433,-4 -2867,0 -4300,6 -97,0 -195,1 -293,1 -147,1 -301,3 -448,-5 -65,-4 -129,-16 -190,-34 -116,-33 -200,-91 -245,-202l-279 0c-45,0 -81,-36 -81,-81l0 -217c0,-44 36,-81 81,-81l278 0c44,-113 129,-171 246,-205 61,-18 125,-30 190,-34 147,-8 301,-5 448,-5 98,1 196,1 293,2 1433,6 2867,9 4300,5 116,0 237,-3 353,8 123,12 242,45 360,80 70,20 139,49 207,75 83,31 166,61 252,84 45,11 91,21 137,27 18,-23 47,-37 77,-37l132 0c55,0 100,45 100,100l0 180c0,54 -45,99 -100,99l-132 0c-32,0 -61,-15 -79,-40z"/>
    <path class="fil1 str0" d="M21259 1503l132 0c33,0 60,27 60,60l0 180c0,33 -27,60 -60,60l-132 0c-27,0 -50,-18 -57,-43 -235,24 -483,149 -627,191 -314,92 -384,86 -702,86 -1256,-4 -3164,0 -4300,5 -235,1 -587,5 -739,-3 -63,-4 -125,-16 -181,-32 -102,-30 -188,-80 -228,-202l0 -2 -307 0c-23,0 -42,-19 -42,-42l0 -217c0,-23 19,-41 42,-41l306 0 0 -1c39,-126 126,-176 229,-206 56,-17 118,-29 181,-32 152,-9 504,-5 739,-4 1136,5 3044,9 4300,6 318,-1 388,-7 702,85 144,43 392,167 627,191l0 3c8,-25 30,-42 57,-42z"/>
    <path class="fil2 str1" d="M21202 1542c-235,-24 -483,-148 -627,-191 -314,-92 -384,-86 -702,-85 -1256,3 -3164,-1 -4300,-6 -235,-1 -587,-5 -739,4 -63,3 -125,15 -181,32 -103,30 -190,80 -229,206l1 303c40,122 126,172 228,202 56,16 118,28 181,32 152,8 504,4 739,3 1136,-5 3044,-9 4300,-5 318,0 388,6 702,-86 144,-42 392,-167 628,-191"/>
    <rect class="fil2 str1" x="21199" y="1503" width="253" height="300" rx="60" ry="57"/>
    <path class="fil2 str1" d="M14118 1503l306 0 0 300 -306 0c-23,0 -42,-19 -42,-42l0 -217c0,-23 19,-41 42,-41z"/>
    <rect class="fil2 str1" x="14424" y="1586" width="6775" height="130"/>
    <path class="fil2 str1" d="M15036 1785c10,16 26,38 48,39 22,1 44,-16 64,-38 -11,-22 -18,-46 -23,-70l42 0c2,11 5,22 8,32 8,-12 15,-24 19,-33 13,-29 24,-63 25,-94 2,-35 0,-73 -9,-108 -2,-7 -10,-34 -19,-40 -9,6 -20,33 -23,41 -8,23 -12,48 -13,72l-40 0c1,-29 7,-60 16,-87 9,-23 26,-59 56,-62 34,-5 51,33 59,57 13,40 15,87 13,129 -1,35 -13,73 -28,106 -9,18 -21,40 -37,61 12,17 26,29 45,31 25,2 49,-13 68,-31 -10,-23 -18,-48 -23,-74l41 0c3,14 6,27 11,40 25,-37 40,-81 42,-124 2,-35 0,-73 -9,-108 -2,-7 -11,-34 -19,-40 -10,6 -21,33 -23,41 -7,20 -11,41 -13,61l-40 0c2,-26 7,-52 16,-76 8,-23 25,-59 55,-63 35,-4 52,34 60,58 12,40 15,87 13,129 -2,54 -24,111 -59,156 -2,2 -3,4 -5,6 9,17 25,38 47,39 22,1 44,-16 63,-37 -12,-25 -19,-54 -24,-82l41 0c3,15 6,30 11,44 8,-13 15,-25 19,-34 13,-29 24,-63 25,-94 2,-35 0,-73 -9,-108 -2,-7 -10,-34 -19,-40 -9,6 -20,33 -23,41 -6,20 -10,41 -12,61l-40 0c2,-26 7,-52 16,-76 8,-23 25,-59 55,-63 34,-4 52,34 59,58 13,40 15,87 14,129 -2,35 -14,73 -29,106 -9,18 -21,40 -37,62 11,17 25,28 44,30 27,3 55,-17 75,-38 -11,-23 -19,-51 -25,-78l41 0c3,15 7,29 12,43 24,-38 39,-84 41,-127 2,-35 0,-73 -9,-108 -2,-7 -10,-34 -19,-40 -9,6 -20,33 -23,41 -6,20 -10,41 -12,61l-40 0c2,-26 7,-52 15,-76 9,-23 26,-59 56,-63 34,-4 51,34 59,58 13,40 15,87 13,129 -2,57 -25,117 -61,164 0,0 -1,1 -1,1 9,16 25,35 45,36 21,1 43,-15 61,-35 -9,-26 -16,-56 -20,-84l40 0c3,15 6,30 10,45 8,-14 15,-26 19,-35 14,-29 24,-63 26,-94 1,-35 0,-73 -9,-108 -2,-7 -11,-34 -19,-40 -10,6 -21,33 -23,41 -7,20 -11,41 -13,61l-40 0c2,-26 7,-52 16,-76 8,-23 25,-59 55,-63 34,-4 52,34 60,58 12,40 15,87 13,129 -2,35 -13,73 -29,106 -9,19 -23,44 -40,66 4,9 15,31 23,32 6,1 19,-18 22,-22 18,-28 31,-67 42,-100l41 0c-12,42 -48,165 -110,159 -19,-2 -34,-17 -47,-38 -23,21 -50,35 -80,34 -31,-1 -54,-20 -71,-42 -26,24 -61,43 -99,40 -28,-3 -49,-17 -65,-37 -25,23 -54,41 -86,39 -33,-1 -57,-22 -74,-46 -25,20 -56,35 -90,32 -28,-3 -50,-17 -67,-37 -24,24 -54,42 -86,40 -33,-1 -56,-21 -72,-44 -28,27 -65,53 -106,43 -23,-6 -41,-21 -56,-41 -24,25 -54,44 -88,42 -15,0 -28,-5 -39,-12 -10,7 -21,13 -33,14 -67,7 -103,-101 -117,-146l34 0 8 0c9,30 23,65 41,89 5,7 18,22 29,21 3,-1 6,-2 9,-4 -5,-7 -10,-15 -14,-22 -13,-25 -23,-54 -30,-84l41 0c6,24 14,48 25,67 1,2 1,3 2,4 22,-50 21,-113 23,-166 2,-35 0,-73 -9,-108 -2,-7 -10,-34 -19,-40 -9,6 -20,33 -23,41 -7,23 -12,48 -13,72l-40 0c1,-29 7,-60 17,-87 8,-23 25,-59 55,-62 34,-5 52,33 59,57 13,40 15,87 14,129 -3,59 -2,124 -27,179 -3,6 -5,11 -8,16 5,3 11,5 17,6 23,1 47,-18 66,-41 -9,-21 -16,-44 -22,-67l41 0c3,9 6,19 9,29 7,-12 13,-22 16,-30 14,-29 25,-63 26,-94 2,-35 0,-73 -9,-108 -2,-7 -11,-34 -19,-40 -10,6 -21,33 -23,41 -8,23 -12,48 -13,72l-41 0c2,-29 7,-60 17,-87 8,-23 25,-59 55,-62 35,-5 52,33 60,57 12,40 15,87 13,129 -2,35 -13,73 -29,106 -8,17 -19,38 -34,58 10,19 23,33 39,36 23,6 49,-15 68,-34l-1 0 8 -11c-8,-19 -15,-40 -20,-62l41 0c2,9 5,17 8,25 24,-36 41,-76 43,-120 1,-35 0,-73 -9,-108 -2,-7 -11,-34 -19,-40 -10,6 -21,33 -23,41 -8,23 -12,48 -13,72l-41 0c2,-29 7,-60 17,-87 8,-23 25,-59 55,-62 34,-5 52,33 60,57 12,40 15,87 13,129 -2,56 -26,107 -60,153l0 0 -5 9z"/>
    <line class="fil2 str1" x1="14166" y1="1503" x2="14166" y2= "1803" />
    <path class="fil2 str2" d="M21724 1552l87 195m0 -185l-94 205m-26 -167l148 93m-131 9l122 -92m-63 -37l2 153m-278 -73l285 0"/>
   </g>
   <g>
    <path class="fil0" d="M28348 5604c-46,6 -91,15 -135,27 -86,22 -169,52 -252,84 -67,25 -137,54 -206,75 -119,35 -238,67 -361,79 -115,12 -237,8 -353,8 -1433,-3 -2866,0 -4299,6 -98,0 -196,1 -293,1 -148,1 -302,4 -449,-5 -64,-4 -128,-16 -190,-33 -115,-34 -200,-92 -245,-203l-279 0c-45,0 -81,-36 -81,-80l0 -218c0,-44 36,-81 81,-81l278 0c44,-112 129,-171 246,-205 62,-18 126,-30 190,-33 147,-9 301,-6 449,-6 97,1 195,2 293,2 1433,6 2866,9 4299,6 116,-1 238,-4 353,7 123,13 242,45 361,80 69,20 139,49 206,75 83,32 166,62 252,84 45,12 91,21 137,27 19,-22 47,-37 77,-37l132 0c55,0 100,45 100,100l0 180c0,55 -45,99 -100,99l-132 0c-32,0 -61,-15 -79,-39z"/>
    <path class="fil1 str0" d="M28427 5304l132 0c33,0 61,27 61,60l0 180c0,33 -28,60 -61,60l-132 0c-27,0 -50,-18 -57,-42 -235,23 -483,148 -626,190 -315,93 -385,87 -703,86 -1256,-3 -3163,1 -4300,5 -234,1 -586,6 -739,-3 -63,-4 -124,-16 -181,-32 -102,-30 -188,-80 -228,-202l0 -2 -307 0c-23,0 -42,-19 -42,-41l0 -218c0,-23 19,-41 42,-41l306 0 0 -1c39,-125 126,-176 229,-206 57,-16 118,-28 181,-32 153,-9 505,-5 739,-4 1137,5 3044,9 4300,6 318,-1 388,-7 703,86 143,42 391,167 626,190l0 3c8,-25 31,-42 57,-42z"/>
    <path class="fil2 str1" d="M28370 5343c-235,-23 -483,-148 -626,-190 -315,-93 -385,-87 -703,-86 -1256,3 -3163,-1 -4300,-6 -234,-1 -586,-5 -739,4 -63,4 -124,16 -181,32 -103,30 -190,81 -229,206l1 303c40,122 126,172 228,202 57,16 118,28 181,32 153,9 505,4 739,3 1137,-4 3044,-8 4300,-5 318,1 388,7 703,-86 144,-42 391,-167 627,-191"/>
    <rect class="fil2 str1" x="28367" y="5304" width="253" height="300" rx="60" ry="57"/>
    <path class="fil2 str1" d="M21286 5304l306 0 0 300 -306 0c-23,0 -42,-19 -42,-41l0 -218c0,-23 19,-41 42,-41z"/>
    <rect class="fil2 str1" x="21592" y="5388" width="6775" height="130"/>
    <path class="fil2 str1" d="M22205 5586c9,16 25,38 47,39 22,1 45,-16 64,-38 -10,-21 -17,-46 -22,-70l41 0c2,11 5,22 8,33 8,-13 15,-25 19,-34 13,-29 24,-62 26,-94 1,-35 0,-73 -9,-107 -2,-8 -11,-35 -19,-41 -10,6 -21,34 -24,42 -7,22 -11,47 -13,72l-40 0c2,-30 7,-61 17,-88 8,-23 25,-59 55,-62 34,-4 52,33 59,57 13,40 16,87 14,129 -2,36 -14,73 -29,106 -8,18 -21,40 -36,61 11,17 26,29 45,31 24,2 48,-13 67,-31 -10,-22 -18,-48 -23,-74l41 0c3,14 7,27 11,40 25,-36 40,-81 42,-124 2,-35 0,-73 -9,-107 -2,-8 -10,-35 -19,-41 -9,6 -20,34 -23,42 -7,19 -11,40 -12,61l-41 0c2,-27 8,-53 16,-77 8,-23 26,-59 55,-62 35,-4 52,33 60,57 13,40 15,87 13,129 -2,54 -23,112 -59,156 -1,2 -3,5 -5,7 9,16 25,37 47,38 22,1 44,-16 63,-37 -11,-25 -19,-54 -24,-82l41 0c3,15 7,30 11,44 8,-13 15,-25 19,-34 13,-29 24,-62 26,-94 1,-35 0,-73 -9,-107 -2,-8 -11,-35 -19,-41 -10,6 -21,34 -24,42 -6,19 -10,40 -12,61l-40 0c2,-27 7,-53 16,-77 8,-23 25,-59 55,-62 34,-4 52,33 59,57 13,40 16,87 14,129 -2,36 -14,73 -29,106 -9,18 -21,41 -37,62 11,17 25,29 44,30 27,3 55,-17 75,-37 -11,-24 -19,-51 -25,-79l41 0c3,15 7,29 12,43 25,-38 40,-84 42,-127 1,-35 -1,-73 -9,-107 -2,-8 -11,-35 -19,-41 -10,6 -21,34 -24,42 -6,19 -10,40 -12,61l-40 0c2,-27 7,-53 16,-77 8,-23 25,-59 55,-62 34,-4 52,33 59,57 13,40 16,87 14,129 -3,57 -25,117 -62,164 0,0 -1,1 -1,1 9,16 25,35 45,36 22,1 43,-15 62,-35 -10,-26 -17,-56 -21,-84l40 0c3,15 6,30 10,45 9,-14 15,-26 19,-35 14,-29 25,-62 26,-94 2,-35 0,-73 -9,-107 -2,-8 -11,-35 -19,-41 -9,6 -21,34 -23,42 -7,19 -11,40 -13,61l-40 0c2,-27 7,-53 16,-77 8,-23 26,-59 55,-62 35,-4 52,33 60,57 13,40 15,87 13,129 -1,36 -13,73 -29,106 -9,20 -23,44 -40,66 4,9 15,32 23,32 6,1 20,-18 22,-22 18,-28 31,-67 42,-100l41 0c-12,42 -48,165 -109,159 -20,-2 -35,-17 -48,-38 -23,21 -50,36 -80,34 -31,-1 -54,-20 -70,-42 -27,24 -62,43 -99,40 -28,-3 -50,-17 -66,-37 -24,24 -54,41 -86,39 -33,-1 -57,-22 -74,-46 -25,20 -56,35 -89,32 -29,-2 -51,-16 -67,-37 -25,24 -54,42 -87,40 -32,-1 -56,-21 -72,-44 -28,28 -65,53 -106,43 -23,-6 -41,-20 -55,-40 -25,25 -55,43 -88,41 -16,0 -29,-5 -40,-12 -10,7 -20,13 -33,14 -67,7 -103,-100 -117,-146l34 0 8 0c10,30 23,65 41,89 6,7 18,22 29,21 3,0 7,-2 10,-4 -6,-7 -10,-15 -15,-22 -13,-24 -23,-54 -30,-84l41 0c6,25 14,48 25,68 1,1 2,2 2,3 22,-49 21,-113 24,-166 1,-35 0,-73 -9,-107 -2,-8 -11,-35 -19,-41 -10,6 -21,34 -24,42 -7,22 -11,47 -13,72l-40 0c2,-30 7,-61 17,-88 8,-23 25,-59 55,-62 34,-4 52,33 59,57 13,40 16,87 14,129 -3,59 -2,124 -27,180 -2,5 -5,10 -8,16 5,3 11,5 17,5 24,1 47,-17 67,-40 -10,-21 -17,-45 -22,-68l41 0c2,9 5,19 8,29 7,-11 13,-22 17,-30 13,-29 24,-62 25,-94 2,-35 0,-73 -9,-107 -2,-8 -10,-35 -19,-41 -9,6 -20,34 -23,42 -8,22 -12,47 -13,72l-40 0c1,-30 6,-61 16,-88 8,-23 26,-59 55,-62 35,-4 52,33 60,57 13,40 15,87 13,129 -1,36 -13,73 -29,106 -8,17 -19,38 -34,59 10,18 23,32 39,36 23,5 49,-15 68,-35l-1 0 8 -10c-8,-20 -15,-41 -20,-63l41 0c3,9 5,17 8,26 24,-37 41,-77 43,-121 2,-35 0,-73 -9,-107 -2,-8 -10,-35 -19,-41 -9,6 -21,34 -23,42 -8,22 -12,47 -13,72l-40 0c1,-30 6,-61 16,-88 8,-23 26,-59 55,-62 35,-4 52,33 60,57 13,40 15,87 13,129 -2,56 -26,107 -60,153l0 0 -4 9z"/>
    <line class="fil2 str1" x1="21334" y1="5304" x2="21334" y2= "5604" />
    <path class="fil2 str2" d="M28892 5353l87 196m0 -186l-94 205m-26 -166l148 93m-131 8l122 -92m-63 -36l2 152m-278 -73l285 0"/>
   </g>
   <g>
    <path class="fil0" d="M35130 1802c-46,7 -91,16 -135,28 -86,22 -169,52 -252,83 -67,26 -137,55 -206,76 -119,34 -238,67 -361,79 -116,12 -237,8 -353,8 -1433,-4 -2866,0 -4300,6 -97,0 -195,1 -292,1 -148,1 -302,3 -449,-5 -65,-4 -128,-16 -190,-34 -115,-33 -200,-91 -245,-202l-279 0c-45,0 -81,-36 -81,-81l0 -217c0,-44 36,-81 81,-81l278 0c44,-113 129,-171 246,-205 62,-18 125,-30 190,-34 147,-8 301,-5 449,-5 97,1 195,1 292,2 1434,6 2867,9 4300,5 116,0 238,-3 353,8 123,12 242,45 361,80 69,20 139,49 206,75 83,31 166,61 252,84 45,11 91,21 137,27 19,-23 47,-37 77,-37l132 0c55,0 100,45 100,100l0 180c0,54 -45,99 -100,99l-132 0c-32,0 -61,-15 -79,-40z"/>
    <path class="fil1 str0" d="M35209 1503l132 0c33,0 61,27 61,60l0 180c0,33 -28,60 -61,60l-132 0c-27,0 -50,-18 -57,-43 -235,24 -483,149 -627,191 -314,92 -384,86 -702,86 -1256,-4 -3163,0 -4300,5 -234,1 -586,5 -739,-3 -63,-4 -124,-16 -181,-32 -102,-30 -188,-80 -228,-202l0 -2 -307 0c-23,0 -42,-19 -42,-42l0 -217c0,-23 19,-41 42,-41l306 0 0 -1c39,-126 126,-176 229,-206 57,-17 118,-29 181,-32 153,-9 505,-5 739,-4 1137,5 3044,9 4300,6 318,-1 388,-7 702,85 144,43 392,167 627,191l0 3c8,-25 31,-42 57,-42z"/>
    <path class="fil2 str1" d="M35152 1542c-235,-24 -483,-148 -627,-191 -314,-92 -384,-86 -702,-85 -1256,3 -3163,-1 -4300,-6 -234,-1 -586,-5 -739,4 -63,3 -124,15 -181,32 -103,30 -190,80 -229,206l1 303c40,122 126,172 228,202 57,16 118,28 181,32 153,8 505,4 739,3 1137,-5 3044,-9 4300,-5 318,0 388,6 702,-86 145,-42 392,-167 628,-191"/>
    <rect class="fil2 str1" x="35149" y="1503" width="253" height="300" rx="60" ry="57"/>
    <path class="fil2 str1" d="M28068 1503l306 0 0 300 -306 0c-23,0 -42,-19 -42,-42l0 -217c0,-23 19,-41 42,-41z"/>
    <rect class="fil2 str1" x="28374" y="1586" width="6775" height="130"/>
    <path class="fil2 str1" d="M28987 1785c9,16 25,38 47,39 22,1 45,-16 64,-38 -10,-22 -17,-46 -22,-70l41 0c2,11 5,22 8,32 8,-12 15,-24 19,-33 13,-29 24,-63 26,-94 1,-35 -1,-73 -9,-108 -2,-7 -11,-34 -20,-40 -9,6 -20,33 -23,41 -7,23 -11,48 -13,72l-40 0c2,-29 7,-60 17,-87 8,-23 25,-59 55,-62 34,-5 52,33 59,57 13,40 15,87 14,129 -2,35 -14,73 -29,106 -8,18 -21,40 -36,61 11,17 26,29 45,31 24,2 48,-13 67,-31 -10,-23 -18,-48 -23,-74l41 0c3,14 7,27 11,40 25,-37 40,-81 42,-124 2,-35 0,-73 -9,-108 -2,-7 -10,-34 -19,-40 -9,6 -20,33 -23,41 -7,20 -11,41 -12,61l-41 0c2,-26 7,-52 16,-76 8,-23 26,-59 55,-63 35,-4 52,34 60,58 13,40 15,87 13,129 -2,54 -24,111 -59,156 -1,2 -3,4 -5,6 9,17 25,38 47,39 22,1 44,-16 63,-37 -11,-25 -19,-54 -24,-82l41 0c3,15 7,30 11,44 8,-13 15,-25 19,-34 13,-29 24,-63 26,-94 1,-35 0,-73 -9,-108 -2,-7 -11,-34 -19,-40 -10,6 -21,33 -24,41 -6,20 -10,41 -12,61l-40 0c2,-26 7,-52 16,-76 8,-23 25,-59 55,-63 34,-4 52,34 59,58 13,40 16,87 14,129 -2,35 -14,73 -29,106 -9,18 -21,40 -37,62 11,17 25,28 44,30 27,3 55,-17 75,-38 -11,-23 -19,-51 -25,-78l41 0c3,15 7,29 12,43 25,-38 40,-84 42,-127 1,-35 -1,-73 -10,-108 -1,-7 -10,-34 -19,-40 -9,6 -20,33 -23,41 -6,20 -10,41 -12,61l-40 0c2,-26 7,-52 16,-76 8,-23 25,-59 55,-63 34,-4 52,34 59,58 13,40 15,87 14,129 -3,57 -25,117 -62,164 0,0 -1,1 -1,1 9,16 25,35 45,36 22,1 43,-15 62,-35 -10,-26 -17,-56 -21,-84l40 0c3,15 6,30 10,45 9,-14 15,-26 19,-35 14,-29 25,-63 26,-94 2,-35 0,-73 -9,-108 -2,-7 -11,-34 -19,-40 -10,6 -21,33 -23,41 -7,20 -11,41 -13,61l-40 0c2,-26 7,-52 16,-76 8,-23 26,-59 55,-63 35,-4 52,34 60,58 13,40 15,87 13,129 -1,35 -13,73 -29,106 -9,19 -23,44 -40,66 4,9 15,31 23,32 6,1 20,-18 22,-22 18,-28 31,-67 42,-100l41 0c-12,42 -48,165 -109,159 -20,-2 -35,-17 -48,-38 -23,21 -50,35 -80,34 -31,-1 -54,-20 -70,-42 -27,24 -62,43 -99,40 -28,-3 -50,-17 -66,-37 -24,23 -54,41 -86,39 -33,-1 -57,-22 -74,-46 -25,20 -56,35 -89,32 -29,-3 -51,-17 -67,-37 -25,24 -54,42 -87,40 -32,-1 -56,-21 -72,-44 -28,27 -65,53 -106,43 -23,-6 -41,-21 -55,-41 -25,25 -55,44 -88,42 -16,0 -29,-5 -40,-12 -10,7 -20,13 -33,14 -67,7 -103,-101 -117,-146l34 0 8 0c10,30 23,65 41,89 6,7 18,22 29,21 3,-1 7,-2 10,-4 -6,-7 -10,-15 -15,-22 -13,-25 -23,-54 -30,-84l41 0c6,24 14,48 25,67 1,2 2,3 2,4 22,-50 21,-113 24,-166 1,-35 0,-73 -9,-108 -2,-7 -11,-34 -19,-40 -10,6 -21,33 -24,41 -7,23 -11,48 -13,72l-40 0c2,-29 7,-60 17,-87 8,-23 25,-59 55,-62 34,-5 52,33 59,57 13,40 16,87 14,129 -3,59 -2,124 -27,179 -2,6 -5,11 -8,16 5,3 11,5 17,6 24,1 47,-18 67,-41 -10,-21 -17,-44 -23,-67l42 0c2,9 5,19 8,29 7,-12 13,-22 17,-30 13,-29 24,-63 25,-94 2,-35 0,-73 -9,-108 -2,-7 -10,-34 -19,-40 -9,6 -20,33 -23,41 -8,23 -12,48 -13,72l-40 0c1,-29 6,-60 16,-87 8,-23 26,-59 55,-62 35,-5 52,33 60,57 13,40 15,87 13,129 -1,35 -13,73 -29,106 -8,17 -19,38 -34,58 10,19 23,33 39,36 23,6 49,-15 68,-34l-1 0 8 -11c-8,-19 -15,-40 -20,-62l41 0c3,9 5,17 8,25 24,-36 41,-76 43,-120 2,-35 0,-73 -9,-108 -2,-7 -11,-34 -19,-40 -9,6 -21,33 -23,41 -8,23 -12,48 -13,72l-40 0c1,-29 6,-60 16,-87 8,-23 26,-59 55,-62 35,-5 52,33 60,57 13,40 15,87 13,129 -2,56 -26,107 -60,153l0 0 -4 9z"/>
    <line class="fil2 str1" x1="28116" y1="1503" x2="28116" y2= "1803" />
    <path class="fil2 str2" d="M35674 1552l87 195m0 -185l-94 205m-26 -167l148 93m-131 9l122 -92m-63 -37l2 153m-278 -73l285 0"/>
   </g>
   <g>
    <path class="fil0" d="M42298 5604c-45,6 -91,15 -135,27 -85,22 -169,52 -252,84 -67,25 -137,54 -206,75 -118,35 -238,67 -361,79 -115,12 -236,8 -353,8 -1433,-3 -2866,0 -4299,6 -98,0 -196,1 -293,1 -148,1 -302,4 -449,-5 -64,-4 -128,-16 -190,-33 -115,-34 -200,-92 -245,-203l-279 0c-45,0 -81,-36 -81,-80l0 -218c0,-44 36,-81 81,-81l278 0c44,-112 129,-171 246,-205 62,-18 126,-30 190,-33 147,-9 301,-6 449,-6 97,1 195,2 293,2 1433,6 2866,9 4299,6 117,-1 238,-4 353,7 123,13 243,45 361,80 69,20 139,49 206,75 83,32 166,62 252,84 45,12 91,21 137,27 19,-22 47,-37 78,-37l132 0c54,0 99,45 99,100l0 180c0,55 -45,99 -100,99l-131 0c-32,0 -62,-15 -80,-39z"/>
    <path class="fil1 str0" d="M42378 5304l131 0c34,0 61,27 61,60l0 180c0,33 -27,60 -61,60l-131 0c-27,0 -50,-18 -58,-42 -235,23 -482,148 -626,190 -315,93 -385,87 -703,86 -1256,-3 -3163,1 -4299,5 -235,1 -587,6 -740,-3 -63,-4 -124,-16 -181,-32 -102,-30 -188,-80 -227,-202l0 -2 -308 0c-23,0 -42,-19 -42,-41l0 -218c0,-23 19,-41 42,-41l306 0 0 -1c39,-125 126,-176 229,-206 57,-16 118,-28 181,-32 153,-9 505,-5 740,-4 1136,5 3043,9 4299,6 318,-1 388,-7 703,86 144,42 391,167 626,190l0 3c8,-25 31,-42 58,-42z"/>
    <path class="fil2 str1" d="M42320 5343c-235,-23 -482,-148 -626,-190 -315,-93 -385,-87 -703,-86 -1256,3 -3163,-1 -4299,-6 -235,-1 -587,-5 -740,4 -63,4 -124,16 -181,32 -103,30 -190,81 -229,206l2 303c39,122 125,172 227,202 57,16 118,28 181,32 153,9 505,4 740,3 1136,-4 3043,-8 4299,-5 318,1 388,7 703,-86 144,-42 392,-167 627,-191"/>
    <rect class="fil2 str1" x="42317" y="5304" width="253" height="300" rx="60" ry="57"/>
    <path class="fil2 str1" d="M35236 5304l306 0 0 300 -306 0c-23,0 -42,-19 -42,-41l0 -218c0,-23 19,-41 42,-41z"/>
    <rect class="fil2 str1" x="35542" y="5388" width="6775" height="130"/>
    <path class="fil2 str1" d="M36155 5586c9,16 25,38 47,39 22,1 45,-16 64,-38 -10,-21 -17,-46 -22,-70l41 0c2,11 5,22 9,33 8,-13 14,-25 18,-34 14,-29 24,-62 26,-94 1,-35 0,-73 -9,-107 -2,-8 -11,-35 -19,-41 -10,6 -21,34 -24,42 -7,22 -11,47 -13,72l-40 0c2,-30 7,-61 17,-88 8,-23 25,-59 55,-62 34,-4 52,33 60,57 12,40 15,87 13,129 -2,36 -14,73 -29,106 -8,18 -21,40 -36,61 11,17 26,29 45,31 24,2 48,-13 67,-31 -10,-22 -18,-48 -23,-74l41 0c3,14 7,27 11,40 25,-36 40,-81 42,-124 2,-35 0,-73 -9,-107 -2,-8 -10,-35 -19,-41 -9,6 -20,34 -23,42 -6,19 -10,40 -12,61l-40 0c2,-27 7,-53 15,-77 9,-23 26,-59 56,-62 34,-4 51,33 59,57 13,40 15,87 13,129 -2,54 -23,112 -59,156 -1,2 -3,5 -5,7 9,16 25,37 47,38 22,1 45,-16 63,-37 -11,-25 -19,-54 -23,-82l40 0c3,15 7,30 11,44 9,-13 15,-25 19,-34 14,-29 24,-62 26,-94 1,-35 0,-73 -9,-107 -2,-8 -11,-35 -19,-41 -10,6 -21,34 -23,42 -7,19 -11,40 -13,61l-40 0c2,-27 7,-53 16,-77 8,-23 25,-59 55,-62 34,-4 52,33 60,57 12,40 15,87 13,129 -2,36 -14,73 -29,106 -8,18 -21,41 -37,62 11,17 26,29 44,30 28,3 55,-17 75,-37 -11,-24 -19,-51 -24,-79l40 0c4,15 8,29 12,43 25,-38 40,-84 42,-127 1,-35 0,-73 -9,-107 -2,-8 -11,-35 -19,-41 -10,6 -21,34 -24,42 -6,19 -10,40 -12,61l-40 0c2,-27 7,-53 16,-77 8,-23 25,-59 55,-62 34,-4 52,33 60,57 12,40 15,87 13,129 -3,57 -25,117 -61,164 -1,0 -1,1 -2,1 10,16 25,35 45,36 22,1 43,-15 62,-35 -10,-26 -16,-56 -21,-84l41 0c2,15 5,30 9,45 9,-14 15,-26 20,-35 13,-29 24,-62 25,-94 2,-35 0,-73 -9,-107 -2,-8 -10,-35 -19,-41 -9,6 -20,34 -23,42 -7,19 -10,40 -12,61l-41 0c3,-27 8,-53 16,-77 9,-23 26,-59 56,-62 34,-4 51,33 59,57 13,40 15,87 13,129 -1,36 -13,73 -28,106 -10,20 -23,44 -41,66 4,9 16,32 23,32 6,1 20,-18 22,-22 18,-28 32,-67 42,-100l42 0c-13,42 -49,165 -110,159 -19,-2 -35,-17 -47,-38 -24,21 -51,36 -80,34 -32,-1 -55,-20 -71,-42 -27,24 -62,43 -99,40 -28,-3 -50,-17 -66,-37 -24,24 -54,41 -86,39 -33,-1 -57,-22 -73,-46 -26,20 -57,35 -90,32 -29,-2 -51,-16 -67,-37 -25,24 -54,42 -87,40 -32,-1 -56,-21 -72,-44 -28,28 -65,53 -106,43 -23,-6 -41,-20 -55,-40 -25,25 -55,43 -88,41 -15,0 -29,-5 -40,-12 -9,7 -20,13 -33,14 -67,7 -103,-100 -116,-146l33 0 8 0c10,30 23,65 42,89 5,7 17,22 28,21 4,0 7,-2 10,-4 -6,-7 -10,-15 -14,-22 -14,-24 -24,-54 -31,-84l41 0c6,25 15,48 25,68 1,1 2,2 3,3 21,-49 21,-113 23,-166 1,-35 0,-73 -9,-107 -2,-8 -11,-35 -19,-41 -10,6 -21,34 -23,42 -8,22 -12,47 -13,72l-41 0c2,-30 7,-61 17,-88 8,-23 25,-59 55,-62 34,-4 52,33 60,57 12,40 15,87 13,129 -3,59 -2,124 -27,180 -2,5 -5,10 -8,16 5,3 11,5 18,5 23,1 46,-17 66,-40 -10,-21 -17,-45 -22,-68l41 0c2,9 5,19 8,29 7,-11 13,-22 17,-30 13,-29 24,-62 25,-94 2,-35 0,-73 -9,-107 -2,-8 -10,-35 -19,-41 -9,6 -20,34 -23,42 -8,22 -12,47 -13,72l-40 0c1,-30 6,-61 16,-88 9,-23 26,-59 56,-62 34,-4 51,33 59,57 13,40 15,87 13,129 -1,36 -13,73 -28,106 -8,17 -20,38 -35,59 11,18 24,32 39,36 23,5 49,-15 68,-35l-1 0 9 -10c-9,-20 -15,-41 -21,-63l42 0c2,9 4,17 7,26 24,-37 41,-77 43,-121 2,-35 0,-73 -9,-107 -2,-8 -10,-35 -19,-41 -9,6 -20,34 -23,42 -8,22 -12,47 -13,72l-40 0c1,-30 6,-61 16,-88 9,-23 26,-59 56,-62 34,-4 51,33 59,57 13,40 15,87 13,129 -2,56 -26,107 -60,153l0 0 -4 9z"/>
    <line class="fil2 str1" x1="35284" y1="5304" x2="35284" y2= "5604" />
    <path class="fil2 str2" d="M42843 5353l86 196m0 -186l-94 205m-26 -166l148 93m-131 8l122 -92m-63 -36l3 152m-279 -73l285 0"/>
   </g>
   <g>
    <path class="fil0" d="M49080 1802c-45,7 -91,16 -135,28 -85,22 -169,52 -252,83 -67,26 -137,55 -206,76 -118,34 -238,67 -361,79 -115,12 -236,8 -353,8 -1433,-4 -2866,0 -4299,6 -98,0 -196,1 -293,1 -148,1 -302,3 -449,-5 -64,-4 -128,-16 -190,-34 -115,-33 -200,-91 -245,-202l-279 0c-45,0 -81,-36 -81,-81l0 -217c0,-44 36,-81 81,-81l278 0c44,-113 129,-171 246,-205 62,-18 126,-30 190,-34 147,-8 301,-5 449,-5 97,1 195,1 293,2 1433,6 2866,9 4299,5 117,0 238,-3 353,8 123,12 243,45 361,80 69,20 139,49 206,75 83,31 166,61 252,84 45,11 91,21 137,27 19,-23 47,-37 77,-37l132 0c55,0 100,45 100,100l0 180c0,54 -45,99 -100,99l-132 0c-31,0 -61,-15 -79,-40z"/>
    <path class="fil1 str0" d="M49159 1503l132 0c34,0 61,27 61,60l0 180c0,33 -27,60 -61,60l-132 0c-27,0 -49,-18 -57,-43 -235,24 -482,149 -626,191 -315,92 -385,86 -703,86 -1256,-4 -3163,0 -4300,5 -234,1 -586,5 -739,-3 -63,-4 -124,-16 -181,-32 -102,-30 -188,-80 -227,-202l0 -2 -308 0c-23,0 -42,-19 -42,-42l0 -217c0,-23 19,-41 42,-41l306 0 0 -1c39,-126 126,-176 229,-206 57,-17 118,-29 181,-32 153,-9 505,-5 739,-4 1137,5 3044,9 4300,6 318,-1 388,-7 703,85 144,43 391,167 626,191l0 3c8,-25 31,-42 57,-42z"/>
    <path class="fil2 str1" d="M49102 1542c-235,-24 -482,-148 -626,-191 -315,-92 -385,-86 -703,-85 -1256,3 -3163,-1 -4300,-6 -234,-1 -586,-5 -739,4 -63,3 -124,15 -181,32 -103,30 -190,80 -229,206l2 303c39,122 125,172 227,202 57,16 118,28 181,32 153,8 505,4 739,3 1137,-5 3044,-9 4300,-5 318,0 388,6 703,-86 144,-42 392,-167 627,-191"/>
    <rect class="fil2 str1" x="49099" y="1503" width="253" height="300" rx="60" ry="57"/>
    <path class="fil2 str1" d="M42018 1503l306 0 0 300 -306 0c-23,0 -42,-19 -42,-42l0 -217c0,-23 19,-41 42,-41z"/>
    <rect class="fil2 str1" x="42324" y="1586" width="6775" height="130"/>
    <path class="fil2 str1" d="M42937 1785c9,16 25,38 47,39 22,1 45,-16 64,-38 -10,-22 -17,-46 -22,-70l41 0c2,11 5,22 9,32 8,-12 14,-24 18,-33 14,-29 24,-63 26,-94 1,-35 0,-73 -9,-108 -2,-7 -11,-34 -19,-40 -10,6 -21,33 -24,41 -7,23 -11,48 -13,72l-40 0c2,-29 7,-60 17,-87 8,-23 25,-59 55,-62 34,-5 52,33 60,57 12,40 15,87 13,129 -2,35 -14,73 -29,106 -8,18 -21,40 -36,61 11,17 26,29 45,31 24,2 48,-13 67,-31 -10,-23 -18,-48 -23,-74l41 0c3,14 7,27 11,40 25,-37 40,-81 42,-124 2,-35 0,-73 -9,-108 -2,-7 -10,-34 -19,-40 -9,6 -20,33 -23,41 -6,20 -10,41 -12,61l-40 0c2,-26 7,-52 15,-76 9,-23 26,-59 56,-63 34,-4 51,34 59,58 13,40 15,87 13,129 -2,54 -23,111 -59,156 -1,2 -3,4 -5,6 9,17 25,38 47,39 22,1 44,-16 63,-37 -11,-25 -19,-54 -23,-82l40 0c3,15 7,30 11,44 8,-13 15,-25 19,-34 14,-29 24,-63 26,-94 1,-35 0,-73 -9,-108 -2,-7 -11,-34 -19,-40 -10,6 -21,33 -24,41 -6,20 -10,41 -12,61l-40 0c2,-26 7,-52 16,-76 8,-23 25,-59 55,-63 34,-4 52,34 60,58 12,40 15,87 13,129 -2,35 -14,73 -29,106 -8,18 -21,40 -37,62 11,17 26,28 44,30 28,3 55,-17 75,-38 -11,-23 -19,-51 -25,-78l41 0c4,15 8,29 12,43 25,-38 40,-84 42,-127 1,-35 0,-73 -9,-108 -2,-7 -11,-34 -19,-40 -10,6 -21,33 -24,41 -6,20 -10,41 -12,61l-40 0c2,-26 7,-52 16,-76 8,-23 25,-59 55,-63 34,-4 52,34 59,58 13,40 16,87 14,129 -3,57 -25,117 -61,164 -1,0 -1,1 -2,1 10,16 25,35 45,36 22,1 43,-15 62,-35 -10,-26 -16,-56 -21,-84l41 0c2,15 5,30 9,45 9,-14 15,-26 20,-35 13,-29 24,-63 25,-94 2,-35 0,-73 -9,-108 -2,-7 -10,-34 -19,-40 -9,6 -20,33 -23,41 -7,20 -10,41 -12,61l-41 0c3,-26 8,-52 16,-76 8,-23 26,-59 56,-63 34,-4 51,34 59,58 13,40 15,87 13,129 -1,35 -13,73 -28,106 -10,19 -23,44 -41,66 4,9 16,31 23,32 6,1 20,-18 22,-22 18,-28 32,-67 42,-100l42 0c-13,42 -49,165 -110,159 -19,-2 -35,-17 -47,-38 -24,21 -51,35 -80,34 -32,-1 -55,-20 -71,-42 -27,24 -62,43 -99,40 -28,-3 -50,-17 -66,-37 -24,23 -54,41 -86,39 -33,-1 -57,-22 -73,-46 -26,20 -57,35 -90,32 -29,-3 -51,-17 -67,-37 -25,24 -54,42 -87,40 -32,-1 -56,-21 -72,-44 -28,27 -65,53 -106,43 -23,-6 -41,-21 -55,-41 -25,25 -55,44 -88,42 -15,0 -29,-5 -40,-12 -9,7 -20,13 -33,14 -67,7 -103,-101 -116,-146l33 0 8 0c10,30 23,65 41,89 6,7 18,22 29,21 4,-1 7,-2 10,-4 -6,-7 -10,-15 -14,-22 -14,-25 -24,-54 -31,-84l41 0c6,24 15,48 25,67 1,2 2,3 3,4 21,-50 21,-113 23,-166 1,-35 0,-73 -9,-108 -2,-7 -11,-34 -19,-40 -10,6 -21,33 -23,41 -8,23 -12,48 -14,72l-40 0c2,-29 7,-60 17,-87 8,-23 25,-59 55,-62 34,-5 52,33 60,57 12,40 15,87 13,129 -3,59 -2,124 -27,179 -2,6 -5,11 -8,16 5,3 11,5 18,6 23,1 46,-18 66,-41 -10,-21 -17,-44 -22,-67l41 0c2,9 5,19 8,29 7,-12 13,-22 17,-30 13,-29 24,-63 25,-94 2,-35 0,-73 -9,-108 -2,-7 -10,-34 -19,-40 -9,6 -20,33 -23,41 -8,23 -12,48 -13,72l-40 0c1,-29 6,-60 16,-87 9,-23 26,-59 56,-62 34,-5 51,33 59,57 13,40 15,87 13,129 -1,35 -13,73 -28,106 -8,17 -20,38 -35,58 11,19 24,33 39,36 23,6 49,-15 68,-34l-1 0 9 -11c-9,-19 -16,-40 -21,-62l42 0c2,9 4,17 7,25 24,-36 41,-76 43,-120 2,-35 0,-73 -9,-108 -2,-7 -10,-34 -19,-40 -9,6 -20,33 -23,41 -8,23 -12,48 -13,72l-40 0c1,-29 6,-60 16,-87 9,-23 26,-59 56,-62 34,-5 51,33 59,57 13,40 15,87 13,129 -2,56 -26,107 -60,153l0 0 -4 9z"/>
    <line class="fil2 str1" x1="42066" y1="1503" x2="42066" y2= "1803" />
    <path class="fil2 str2" d="M49625 1552l86 195m0 -185l-94 205m-26 -167l148 93m-131 9l122 -92m-63 -37l2 153m-278 -73l285 0"/>
   </g>
  </g>
 </g>
</svg>
